<svg xmlns="http://www.w3.org/2000/svg" viewBox="0 0 1024 370">
  <title>header</title>
  <g>
    <g>
      <g>
        <path d="M427.085,212h5.557v24.1h.143a16.271,16.271,0,0,1,5.307-4,15.471,15.471,0,0,1,6.661-1.422,19.712,19.712,0,0,1,7.159,1.253A15.681,15.681,0,0,1,461,240.711a17.8,17.8,0,0,1,0,13.271,16.264,16.264,0,0,1-3.526,5.281,16.032,16.032,0,0,1-5.307,3.487A17.156,17.156,0,0,1,445.608,264a16.085,16.085,0,0,1-7.873-1.862,12.417,12.417,0,0,1-4.95-4.571h-.143v5.62h-5.557Zm5.557,35.343a12.828,12.828,0,0,0,.819,4.638,10.711,10.711,0,0,0,2.387,3.725,11.355,11.355,0,0,0,3.74,2.5,13.485,13.485,0,0,0,9.76,0,11.386,11.386,0,0,0,3.74-2.5,10.737,10.737,0,0,0,2.386-3.725,13.539,13.539,0,0,0,0-9.275,10.746,10.746,0,0,0-2.386-3.725,11.4,11.4,0,0,0-3.74-2.5,13.485,13.485,0,0,0-9.76,0,11.371,11.371,0,0,0-3.74,2.5,10.72,10.72,0,0,0-2.387,3.725A12.827,12.827,0,0,0,432.642,247.346Z" style="fill: #e8000c"/>
        <path d="M499.963,255.675q0,2.167.143,4.062t.142,3.453h-5.272q0-1.285-.071-2.573t-.071-2.64h-.143a9.161,9.161,0,0,1-1.6,2.234,11.438,11.438,0,0,1-2.457,1.93,13.5,13.5,0,0,1-3.206,1.354,14.005,14.005,0,0,1-3.847.508,15.336,15.336,0,0,1-5.664-.948,10.21,10.21,0,0,1-6.269-6.737,17.608,17.608,0,0,1-.748-5.248V231.5h5.557v19.026a9.763,9.763,0,0,0,1.852,6.3q1.853,2.3,5.771,2.3a11.32,11.32,0,0,0,4.666-.881,8.188,8.188,0,0,0,3.2-2.505,10.981,10.981,0,0,0,1.853-3.859,18.908,18.908,0,0,0,.605-4.943V231.5h5.557Z" style="fill: #e8000c"/>
        <path d="M510.507,239.018q0-2.166-.143-4.062t-.142-3.453h5.271q0,1.286.072,2.573t.071,2.64h.142a9.127,9.127,0,0,1,1.6-2.234,11.457,11.457,0,0,1,2.458-1.93,13.509,13.509,0,0,1,3.206-1.354,14,14,0,0,1,3.847-.508,15.334,15.334,0,0,1,5.663.948,10.668,10.668,0,0,1,3.954,2.641,10.55,10.55,0,0,1,2.316,4.1,17.608,17.608,0,0,1,.748,5.248V263.19h-5.557V244.164a9.778,9.778,0,0,0-1.852-6.3q-1.854-2.3-5.771-2.3a11.327,11.327,0,0,0-4.666.881,8.17,8.17,0,0,0-3.206,2.5,10.962,10.962,0,0,0-1.852,3.859,18.87,18.87,0,0,0-.606,4.943V263.19h-5.556Z" style="fill: #e8000c"/>
        <path d="M576.828,257.57h-.143a12.431,12.431,0,0,1-4.95,4.571A16.084,16.084,0,0,1,563.863,264a17.141,17.141,0,0,1-6.554-1.253A16,16,0,0,1,552,259.263a16.266,16.266,0,0,1-3.527-5.281,17.813,17.813,0,0,1,0-13.271,15.689,15.689,0,0,1,9.083-8.768,19.71,19.71,0,0,1,7.16-1.253,15.474,15.474,0,0,1,6.661,1.422,16.289,16.289,0,0,1,5.306,4h.143V212h5.557V263.19h-5.557Zm0-10.224a12.827,12.827,0,0,0-.819-4.637,10.773,10.773,0,0,0-2.385-3.725,11.427,11.427,0,0,0-3.741-2.5,13.485,13.485,0,0,0-9.76,0,11.371,11.371,0,0,0-3.74,2.5A10.735,10.735,0,0,0,554,242.709a13.539,13.539,0,0,0,0,9.275,10.725,10.725,0,0,0,2.387,3.725,11.355,11.355,0,0,0,3.74,2.5,13.485,13.485,0,0,0,9.76,0,11.412,11.412,0,0,0,3.741-2.5,10.764,10.764,0,0,0,2.385-3.725A12.828,12.828,0,0,0,576.828,247.346Z" style="fill: #e8000c"/>
        <path d="M592.212,212h5.558V263.19h-5.558Z" style="fill: #e8000c"/>
        <path d="M638.589,257.435a16.783,16.783,0,0,1-6.554,5.112A21.736,21.736,0,0,1,623.771,264a18.012,18.012,0,0,1-7.053-1.321,15.906,15.906,0,0,1-5.307-3.554,15.431,15.431,0,0,1-3.348-5.282,17.893,17.893,0,0,1-1.176-6.5,17.364,17.364,0,0,1,1.282-6.737,15.559,15.559,0,0,1,3.562-5.281,16.089,16.089,0,0,1,5.414-3.419,18.7,18.7,0,0,1,6.839-1.219,17.83,17.83,0,0,1,6.412,1.117,13.962,13.962,0,0,1,5.023,3.25,14.487,14.487,0,0,1,3.241,5.214,20.132,20.132,0,0,1,1.139,7.008v1.692H612.872a10.636,10.636,0,0,0,1.032,3.894,11.268,11.268,0,0,0,2.315,3.25,10.685,10.685,0,0,0,7.552,3.013,12.659,12.659,0,0,0,10.614-4.808ZM633.816,244.5a8.883,8.883,0,0,0-2.779-6.5,10.292,10.292,0,0,0-7.266-2.438,11.1,11.1,0,0,0-7.48,2.438,10.047,10.047,0,0,0-3.419,6.5Z" style="fill: #e8000c"/>
        <path d="M649.42,239.018q0-2.166-.142-4.062t-.142-3.453h5.271q0,1.286.071,2.573t.072,2.64h.142a9.127,9.127,0,0,1,1.6-2.234,11.433,11.433,0,0,1,2.458-1.93,13.509,13.509,0,0,1,3.206-1.354,13.985,13.985,0,0,1,3.847-.508,9.682,9.682,0,0,1,1.139.068,5.2,5.2,0,0,1,1.14.271l-.356,5.349a10.859,10.859,0,0,0-2.992-.407q-5.13,0-7.444,3.149t-2.316,8.633V263.19H649.42Z" style="fill: #e8000c"/>
      </g>
      <g>
        <path d="M426.537,141.484H444.8v9.5h.243a22.448,22.448,0,0,1,6.939-8.217,17.538,17.538,0,0,1,10.1-2.739q1.579,0,3.165.122a15.75,15.75,0,0,1,2.922.487V157.31a27.8,27.8,0,0,0-3.835-.913,24.954,24.954,0,0,0-3.956-.3,19.4,19.4,0,0,0-8.279,1.461,10.991,10.991,0,0,0-4.686,4.078,15.492,15.492,0,0,0-2.131,6.27,60.972,60.972,0,0,0-.486,8.034v24.712H426.537Z" style="fill: #99001d"/>
        <path d="M471.7,171.066a31,31,0,0,1,2.557-12.783,29.43,29.43,0,0,1,7-9.8,30.916,30.916,0,0,1,10.469-6.269,38.72,38.72,0,0,1,25.686,0,30.95,30.95,0,0,1,10.47,6.269,29.458,29.458,0,0,1,7,9.8,33.229,33.229,0,0,1,0,25.565,29.432,29.432,0,0,1-7,9.8,30.934,30.934,0,0,1-10.47,6.269,38.736,38.736,0,0,1-25.686,0,30.9,30.9,0,0,1-10.469-6.269,29.4,29.4,0,0,1-7-9.8A30.982,30.982,0,0,1,471.7,171.066Zm18.26,0q0,6.7,3.835,10.834t10.773,4.139q6.939,0,10.774-4.139t3.834-10.834q0-6.694-3.834-10.835t-10.774-4.139q-6.937,0-10.773,4.139T489.962,171.066Z" style="fill: #99001d"/>
        <path d="M548.393,108.615h18.26v92.032h-18.26Z" style="fill: #99001d"/>
        <path d="M580.043,108.615H598.3v92.032H580.043Z" style="fill: #99001d"/>
        <path d="M668.422,200.647h-17.53v-8.034h-.243a20.343,20.343,0,0,1-2.5,3.408,16.342,16.342,0,0,1-3.713,3.044,21.564,21.564,0,0,1-4.992,2.191,20.892,20.892,0,0,1-6.086.852,25.571,25.571,0,0,1-11.261-2.13,16.1,16.1,0,0,1-6.7-5.905,23.149,23.149,0,0,1-3.165-8.886,72.515,72.515,0,0,1-.791-11.078V141.484h18.26v28.973q0,2.556.183,5.3a16.692,16.692,0,0,0,1.1,5.051,7.852,7.852,0,0,0,8.216,5.235,11.275,11.275,0,0,0,5.722-1.278,8.72,8.72,0,0,0,3.348-3.409,13.951,13.951,0,0,0,1.522-4.808,41.51,41.51,0,0,0,.365-5.6v-29.46h18.26Z" style="fill: #99001d"/>
        <path d="M683.029,141.484h16.8v7.791h.244a20.2,20.2,0,0,1,2.86-3.226,21.651,21.651,0,0,1,4.14-2.982,25.794,25.794,0,0,1,5.173-2.192,20.445,20.445,0,0,1,5.965-.852,30.524,30.524,0,0,1,11.93,2.252,26.627,26.627,0,0,1,9.191,6.331,28.263,28.263,0,0,1,5.9,9.677,35.221,35.221,0,0,1,2.07,12.3,37.283,37.283,0,0,1-1.888,11.869,32.705,32.705,0,0,1-5.355,10.043,26.181,26.181,0,0,1-8.461,7,24.029,24.029,0,0,1-11.321,2.617,31.419,31.419,0,0,1-10.653-1.765,17.034,17.034,0,0,1-8.095-6.026h-.244l-.2,68.953H683.029Zm16.8,29.582q0,6.7,3.834,10.834t10.774,4.139q6.939,0,10.773-4.139t3.835-10.834q0-6.694-3.835-10.835t-10.773-4.139q-6.939,0-10.774,4.139T699.828,171.066Z" style="fill: #99001d"/>
      </g>
    </g>
    <g>
      <path d="M369.386,212.266l-15.4-6.585a25.3,25.3,0,0,1-9.337,9.143l7.061,15.085q.853-.435,1.695-.908a1.465,1.465,0,0,1,1.671.139c1.949,1.942,6.821,6.8,8.91,8.876a1.349,1.349,0,0,0,1.949,0l11.833-11.789a1.336,1.336,0,0,0,0-1.941l-8.91-8.876a1.47,1.47,0,0,1-.278-1.665Q369,213.007,369.386,212.266Z" style="fill: #99001d"/>
      <path d="M332.382,218.045a25.025,25.025,0,0,1-5.481-.607l-7.087,15.14q.981.314,1.988.584c.556.139.835.832.835,1.526V247.17a1.429,1.429,0,0,0,1.531,1.387h16.706c.836,0,1.253-.555,1.253-1.387V234.688a1.841,1.841,0,0,1,1.114-1.526q.954-.256,1.884-.551L338.006,217.4A25.011,25.011,0,0,1,332.382,218.045Z" style="fill: #99001d"/>
      <path d="M310.587,205.359,295.5,212.366q.4.765.823,1.518a1.45,1.45,0,0,1-.139,1.664l-8.91,8.876a1.337,1.337,0,0,0,0,1.942l11.833,11.789a1.349,1.349,0,0,0,1.949,0l8.91-8.876a1.486,1.486,0,0,1,1.671-.278q.793.447,1.6.859l7-14.963A25.293,25.293,0,0,1,310.587,205.359Z" style="fill: #99001d"/>
      <path d="M307.323,193.08a24.739,24.739,0,0,1,.684-5.782L292.8,180.232q-.349,1.068-.648,2.169a1.382,1.382,0,0,1-1.392.971H278.087a1.313,1.313,0,0,0-1.392,1.387V201.4a1.313,1.313,0,0,0,1.392,1.387h12.669a1.513,1.513,0,0,1,1.392.97q.283,1.047.613,2.062l15.219-7.07A24.735,24.735,0,0,1,307.323,193.08Z" style="fill: #e8000c"/>
      <path d="M320.4,171.176l-7.028-15.014c-.631.318-1.256.648-1.876,1a1.464,1.464,0,0,1-1.67-.139l-8.91-8.876a1.349,1.349,0,0,0-1.949,0l-11.834,11.65a1.339,1.339,0,0,0,0,1.942l8.91,8.876a1.471,1.471,0,0,1,.279,1.664q-.4.7-.771,1.418l15.088,7.01A25.3,25.3,0,0,1,320.4,171.176Z" style="fill: #e8000c"/>
      <g>
        <path d="M335.067,200.562a89.17,89.17,0,0,0,5.731-8.836c4.937-8.07,9.9-16.12,15.513-23.756A99.822,99.822,0,0,1,368.457,153.9c2.821-2.634,5.781-5.111,8.742-7.588a15.76,15.76,0,0,0,3.31-3.359,4.11,4.11,0,0,0,.62-3.3,16.647,16.647,0,0,0-.907-3.083,45.655,45.655,0,0,0-1.9-4.283c-.1-.17-.693-1.46-.832-1.646a4.067,4.067,0,0,0,.117,2.079,26.647,26.647,0,0,1,1.483,4.911,9.465,9.465,0,0,1,.093,2.927,2.5,2.5,0,0,1-3.053,2.15,8.677,8.677,0,0,1-3.591-1.686,15.875,15.875,0,0,1-6.122-8.92,9.276,9.276,0,0,1,1.826-8.582,8.8,8.8,0,0,1,5.412-3.02,20.024,20.024,0,0,1,16.888,4.614,4.168,4.168,0,0,1,.968,1.229,27.343,27.343,0,0,1,3.245,9.81,29.465,29.465,0,0,1-6.912,23.643,31.125,31.125,0,0,1-7.457,6.276c-1.309.813-1.453,1.277-.748,2.667,4.545,8.966,14.993,29.261,15.388,30.509a1.619,1.619,0,0,1-1.822,1.328c-4.781-.021-42.892-.01-57.166-.01Z" style="fill: #99001d"/>
        <path d="M387.89,118.326l-1.433-.877a21.827,21.827,0,0,0-15.685-2.7,13.227,13.227,0,0,0-6.707,3.749,47.992,47.992,0,0,0-6.574,8.449c-4.477,6.917-8.432,14.137-12.419,21.338-4.225,7.63-8.493,15.239-12.288,23.1a106.051,106.051,0,0,0-5.869,14.142,28.674,28.674,0,0,0-1.328,6.447,8.161,8.161,0,0,0,.561,3.332,5.4,5.4,0,0,1-1.941-3.764,19.45,19.45,0,0,1,1-6.912,4.289,4.289,0,0,1,.147-.5,18.28,18.28,0,0,0,1.2-7.479c-.049-22.8-.022-45.6-.041-68.405,0-1.76.191-2.248,2.223-2.243,11.708.033,23.416.008,35.124.02a29.679,29.679,0,0,1,13.872,3.362,29.293,29.293,0,0,1,9.927,8.308A.755.755,0,0,1,387.89,118.326Z" style="fill: #e8000c"/>
      </g>
    </g>
  </g>
</svg>
