<svg xmlns="http://www.w3.org/2000/svg" viewBox="0 0 850 1024">
  <title>logo</title>
  <g>
    <path d="M880.793,891.325l-110.622-47.3A181.751,181.751,0,0,1,703.1,909.7l50.718,108.355q6.14-3.126,12.179-6.521c4-1.992,9-1.992,12,1l64,63.758a9.692,9.692,0,0,0,14,0l85-84.678a9.6,9.6,0,0,0,0-13.947L877,913.9a10.565,10.565,0,0,1-2-11.955Q878.008,896.645,880.793,891.325Z" transform="translate(-215 -128)" style="fill: #99001d"/>
    <path d="M615,932.832a179.543,179.543,0,0,1-39.367-4.361l-50.907,108.757q7.041,2.25,14.275,4.192c4,1,6,5.977,6,10.958v89.66c0,5.977,5,9.962,11,9.962H676c6,0,9-3.985,9-9.962v-89.66c0-4.981,4-8.966,8-10.958q6.856-1.839,13.53-3.961L655.4,928.22A179.382,179.382,0,0,1,615,932.832Z" transform="translate(-215 -128)" style="fill: #99001d"/>
    <path d="M458.441,841.709l-108.35,50.334q2.847,5.49,5.908,10.9c2,3.985,2,8.966-1,11.955l-64,63.758a9.6,9.6,0,0,0,0,13.947l85,84.679a9.693,9.693,0,0,0,14,0l64-63.758a10.665,10.665,0,0,1,12-1.993q5.7,3.21,11.492,6.168L527.8,910.222A181.73,181.73,0,0,1,458.441,841.709Z" transform="translate(-215 -128)" style="fill: #99001d"/>
    <path d="M435,753.513a177.5,177.5,0,0,1,4.915-41.532L330.655,661.225Q328.144,668.9,326,676.8c-1,3.985-5,6.974-10,6.974H225c-6,0-10,3.984-10,9.962V813.286c0,5.977,4,9.962,10,9.962h91c5,0,8,2.989,10,6.974q2.031,7.512,4.4,14.807l109.319-50.783A177.542,177.542,0,0,1,435,753.513Z" transform="translate(-215 -128)" style="fill: #e8000c"/>
    <path d="M528.95,596.177,478.471,488.333c-4.531,2.281-9.024,4.655-13.472,7.159-4,1.993-9,1.993-12-1l-64-63.758a9.692,9.692,0,0,0-14,0L290,514.42a9.606,9.606,0,0,0,0,13.948l64,63.757a10.567,10.567,0,0,1,2,11.955q-2.87,5.058-5.536,10.186l108.378,50.347A181.751,181.751,0,0,1,528.95,596.177Z" transform="translate(-215 -128)" style="fill: #e8000c"/>
    <g>
      <path d="M634.285,807.257c15.79-20.089,28.06-42.052,41.162-63.469C710.91,685.816,746.6,627.993,786.878,573.15c26.419-35.973,54.517-70.539,87.248-101.1,20.263-18.921,41.522-36.717,62.787-54.5,8.684-7.264,17.5-14.458,23.777-24.132,4.751-7.324,6.437-15.014,4.454-23.7-1.691-7.405-3.428-15.275-6.511-22.14-4.845-10.79-7.784-20.491-13.658-30.765-.7-1.224-4.977-10.491-5.977-11.827-1.763,2.88.068,13,.845,14.934A191.5,191.5,0,0,1,950.5,355.191a68.132,68.132,0,0,1,.664,21.03c-1.29,10.805-11.2,17.593-21.925,15.439a62.3,62.3,0,0,1-25.8-12.106c-21.621-16.588-37.407-37.269-43.971-64.071-5.526-22.559-2.029-43.492,13.114-61.647,10.079-12.084,23.673-19.112,38.877-21.691,45.438-7.709,85.959,3.607,121.3,33.138a29.96,29.96,0,0,1,6.959,8.833c12.12,22.072,20.209,45.648,23.308,70.461,7.936,63.538-7.9,120.491-49.649,169.831-15.308,18.093-33.537,32.621-53.568,45.075-9.4,5.845-10.434,9.178-5.373,19.159,32.651,64.4,107.695,210.179,110.532,219.146-1.89,7.3-6.384,9.563-13.085,9.535-34.344-.144-308.094-.066-410.624-.066Z" transform="translate(-215 -128)" style="fill: #99001d"/>
      <path d="M1013.71,216.558c-3.927-2.4-7.105-4.356-10.29-6.3a156.773,156.773,0,0,0-112.67-19.386c-18.836,3.717-34.575,13.635-48.175,26.929-18.5,18.084-33.255,39.108-47.223,60.692-32.157,49.686-60.561,101.548-89.2,153.269-30.35,54.809-61,109.462-88.265,165.9-15.967,33.057-31.079,66.487-42.154,101.586-4.777,15.138-8.338,30.5-9.542,46.31-.592,7.775,1.072,15.439,4.031,23.928-8.668-7.782-13.148-16.441-13.94-27.031C555,725.376,558.7,709.016,563.422,692.8a30.406,30.406,0,0,1,1.059-3.614c7.435-17.191,8.672-35.133,8.632-53.723-.353-163.784-.158-327.569-.3-491.354-.01-12.638,1.377-16.148,15.972-16.107,84.1.236,168.193.054,252.29.144,35.133.038,68.474,7.9,99.644,24.147a210.5,210.5,0,0,1,71.309,59.674A5.449,5.449,0,0,1,1013.71,216.558Z" transform="translate(-215 -128)" style="fill: #e8000c"/>
    </g>
  </g>
</svg>
